Coordinates
version=1
nRows=11
nColumns=40
inDegrees=yes

Units are S.I. units (second, meters, Newtons, ...)
If the header above contains a line with 'inDegrees', this indicates whether rotational values are in degrees (yes) or radians (no).

endheader
time	pelvis_tilt	pelvis_list	pelvis_rotation	pelvis_tx	pelvis_ty	pelvis_tz	hip_flexion_r	hip_adduction_r	hip_rotation_r	knee_angle_r	knee_angle_r_beta	ankle_angle_r	subtalar_angle_r	mtp_angle_r	hip_flexion_l	hip_adduction_l	hip_rotation_l	knee_angle_l	knee_angle_l_beta	ankle_angle_l	subtalar_angle_l	mtp_angle_l	lumbar_extension	lumbar_bending	lumbar_rotation	arm_flex_r	arm_add_r	arm_rot_r	elbow_flex_r	pro_sup_r	wrist_flex_r	wrist_dev_r	arm_flex_l	arm_add_l	arm_rot_l	elbow_flex_l	pro_sup_l	wrist_flex_l	wrist_dev_l
      1.01999998	      0.82945897	     13.66801444	    -94.77030271	      0.03461322	      1.19216167	      0.15552802	     29.75987184	     -3.96184119	      3.93345256	     31.51255703	      0.54999788	      0.32754707	      0.00000000	      0.00000000	     17.29014867	      1.63018078	      0.13090040	     12.67004278	      0.22113396	      2.06292751	      0.00000000	      0.00000000	      4.19971551	     -0.24041904	      0.03701013	     27.92948323	     19.02792538	     69.24089560	     99.82551812	     43.73747408	      0.00000000	      0.00000000	     35.06151886	     14.15942487	     68.32499732	    102.50420847	     42.37475296	      0.00000000	      0.00000000
      1.02999997	      1.07641634	     13.41726902	    -95.06257246	      0.03550381	      1.19160246	      0.15589875	     31.21756394	     -4.08189875	      4.30189472	     34.29656899	      0.59858805	     -0.03097494	      0.00000000	      0.00000000	     17.07580114	      1.91678285	     -0.04664249	     12.85951613	      0.22444090	      2.42431346	      0.00000000	      0.00000000	      3.77158963	     -0.53937662	      0.13079451	     27.88905187	     19.11983940	     69.20973427	     99.73457326	     43.74103657	      0.00000000	      0.00000000	     35.18325533	     14.06806941	     68.41613831	    102.58077225	     42.37331036	      0.00000000	      0.00000000
      1.03999996	      1.31286758	     13.26667003	    -95.29491659	      0.03635431	      1.19103164	      0.15619712	     32.76367843	     -4.13493457	      4.69340796	     36.97281152	      0.64529729	     -0.27044828	      0.00000000	      0.00000000	     17.02652072	      2.18986281	     -0.25201828	     13.12096967	      0.22900412	      2.67624950	      0.00000000	      0.00000000	      3.49324796	     -0.81473962	      0.19124116	     27.78861426	     19.21211014	     69.15128858	     99.58840443	     43.74293038	      0.00000000	      0.00000000	     35.26344719	     13.95933566	     68.54220326	    102.60640932	     42.36046126	      0.00000000	      0.00000000
      1.04999995	      1.44502469	     13.18346761	    -95.44056732	      0.03715289	      1.19058947	      0.15666377	     34.27066796	     -4.10530261	      4.78403550	     39.38836102	      0.68745659	     -0.27385427	      0.00000000	      0.00000000	     17.06261116	      2.35263978	     -0.38114923	     13.42241218	      0.23426529	      2.91655333	      0.00000000	      0.00000000	      3.27329256	     -0.99516187	      0.14566682	     27.60907375	     19.27705095	     69.06891875	     99.42704540	     43.75006608	      0.00000000	      0.00000000	     35.26055808	     13.89406189	     68.69147853	    102.55507530	     42.33120772	      0.00000000	      0.00000000
      1.06000006	      1.49170353	     13.07017753	    -95.49485739	      0.03796675	      1.19037269	      0.15735877	     35.58677186	     -4.00238862	      4.70928293	     41.43680268	      0.72320864	      0.10911393	      0.00000000	      0.00000000	     17.03611199	      2.45518855	     -0.40178368	     13.69231246	      0.23897593	      3.15057228	      0.00000000	      0.00000000	      3.01797395	     -1.08587683	      0.00906978	     27.46186192	     19.28824429	     69.03520244	     99.32332704	     43.75439790	      0.00000000	      0.00000000	     35.19271581	     13.85389498	     68.76072407	    102.44737920	     42.30250895	      0.00000000	      0.00000000
      1.07000005	      1.41207496	     13.00448479	    -95.47228625	      0.03875278	      1.19033151	      0.15814650	     36.79816682	     -3.76740402	      4.51306646	     43.07531456	      0.75180607	      0.65578894	      0.00000000	      0.00000000	     17.04924284	      2.42241040	     -0.39795081	     13.94970641	      0.24346831	      3.26666289	      0.00000000	      0.00000000	      2.79679133	     -1.03675595	     -0.18548796	     27.32413219	     19.26350972	     69.02732368	     99.25497410	     43.75721194	      0.00000000	      0.00000000	     35.06593607	     13.87164419	     68.82199355	    102.31308206	     42.27278356	      0.00000000	      0.00000000
      1.08000004	      1.16594912	     12.84567019	    -95.42898671	      0.03943381	      1.19077978	      0.15915379	     37.67628101	     -3.29360015	      4.43661612	     44.11345130	      0.76992497	      0.74909308	      0.00000000	      0.00000000	     16.87103611	      2.21688929	     -0.34258483	     14.06294209	      0.24544464	      3.22702245	      0.00000000	      0.00000000	      2.44138219	     -0.79374227	     -0.43637711	     27.16575739	     19.08622562	     69.03708240	     99.20146074	     43.75382158	      0.00000000	      0.00000000	     34.88242314	     13.82390667	     68.90488593	    102.18809011	     42.24734431	      0.00000000	      0.00000000
      1.09000003	      1.08896816	     13.07952645	    -95.37984285	      0.04021784	      1.19054889	      0.15984779	     39.12551237	     -3.02018530	      4.11748924	     45.17657660	      0.78848001	      1.24717115	      0.00000000	      0.00000000	     17.37150805	      2.15336960	     -0.43550226	     14.63176834	      0.25537253	      3.50519881	      0.00000000	      0.00000000	      2.56997231	     -0.70835665	     -0.58836495	     27.06328101	     19.04289152	     69.05004604	     99.29953682	     43.78338524	      0.00000000	      0.00000000	     34.63976117	     13.97106496	     68.77633547	    101.91618517	     42.20140597	      0.00000000	      0.00000000
      1.10000002	      0.85699130	     12.98183492	    -95.32826756	      0.04083130	      1.19104826	      0.16097987	     39.95913164	     -2.55807476	      3.87839025	     45.61154353	      0.79607161	      1.29802843	      0.00000000	      0.00000000	     17.25549378	      1.95964714	     -0.44660384	     14.74410166	      0.25733312	      3.48987330	      0.00000000	      0.00000000	      2.29174991	     -0.47720033	     -0.76989107	     27.02574453	     18.94746719	     69.05636962	     99.32629434	     43.78923156	      0.00000000	      0.00000000	     34.50520641	     14.01876165	     68.79374877	    101.83366550	     42.18570245	      0.00000000	      0.00000000
      1.11000001	      0.53760123	     13.09853101	    -95.24587331	      0.04129288	      1.19132717	      0.16193474	     40.95430781	     -1.98728515	      3.56938015	     45.71914586	      0.79794963	      1.26860869	      0.00000000	      0.00000000	     17.52433250	      1.62113019	     -0.54657506	     15.18021372	      0.26494471	      3.67995785	      0.00000000	      0.00000000	      2.22838318	     -0.15192475	     -0.99460918	     27.04116504	     18.77899399	     69.15021955	     99.53812011	     43.81685123	      0.00000000	      0.00000000	     34.25311683	     14.17401929	     68.60875392	    101.68666863	     42.16840467	      0.00000000	      0.00000000
      1.12000000	      0.28414457	     13.05096145	    -95.25443506	      0.04162388	      1.19179621	      0.16314622	     41.71886079	     -1.44425629	      3.34745281	     45.56355831	      0.79523411	      1.09353642	      0.00000000	      0.00000000	     17.43765338	      1.36590702	     -0.64137342	     15.27739372	      0.26664082	      3.74428728	      0.00000000	      0.00000000	      1.99606668	      0.10289018	     -1.12685443	     27.09836471	     18.71745294	     69.17867616	     99.63715029	     43.83018464	      0.00000000	      0.00000000	     34.14492697	     14.26400304	     68.53258821	    101.66832153	     42.16748067	      0.00000000	      0.00000000
